<svg height="225.129362" viewBox="0 0 804.83716 407.80347" width="444.189061" xmlns="http://www.w3.org/2000/svg"><g fill="#929497"><path d="m19.03713 386.1c.5.6.8.6 1.1 0l15.3-29.1c.2-.4.5-.6.9-.6h2.8c.5 0 1 .5 1 1v33.4c0 .6-.5 1-1 1h-2.8c-.6 0-1-.5-1-1v-26l-13.4 25c-1.5 2.7-4.8 2.7-6.2 0l-10.9999996-21.7v22.8c0 .6-.4 1-1 1h-2.7c-.49999995 0-.99999995-.5-.99999995-1v-33.4c0-.6.5-1 .99999995-1h2.8c.4 0 .7.2.9.6z"/><path d="m52.43713 365.5h2.8c.6 0 1 .5 1 1v24.3c0 .6-.4 1-1 1h-2.8c-.6 0-1-.5-1-1v-24.3c0-.6.5-1 1-1z"/><path d="m53.83713 356.4c1.4 0 2.6 1.2 2.6 2.6s-1.2 2.6-2.6 2.6-2.6-1.2-2.6-2.6 1.2-2.6 2.6-2.6z"/><path d="m103.23713 365.5h2.8c.6 0 1 .5 1 1v24.3c0 .6-.5 1-1 1h-2.8c-.5 0-1-.5-1-1v-24.3c0-.6.5-1 1-1z"/><path d="m104.63713 356.4c1.4 0 2.6 1.2 2.6 2.6s-1.2 2.6-2.6 2.6-2.6-1.2-2.6-2.6 1.2-2.6 2.6-2.6z"/><path d="m465.93713 365.5h2.8c.5 0 1 .5 1 1v24.3c0 .6-.5 1-1 1h-2.8c-.6 0-1-.5-1-1v-24.3c0-.6.5-1 1-1z"/><path d="m467.33713 356.4c1.4 0 2.6 1.2 2.6 2.6s-1.2 2.6-2.6 2.6-2.6-1.2-2.6-2.6 1.2-2.6 2.6-2.6z"/><path d="m86.93713 376c0-6.2-5.2-8.3-15.9-8.2v22.9c0 .5-.5 1-1 1h-2.8c-.5 0-1-.5-1-1v-24.3c0-.6.5-1 1-1 4.2 0 8.4-.1 12.6 0 7.5.3 11.9 5 11.9 12.3v13.1c0 .5-.5 1-1 1h-2.8c-.5 0-1-.5-1-1z"/><path d="m530.83713 376c0-6.2-5.2-8.3-15.9-8.2v22.9c0 .5-.5 1-1 1h-2.8c-.5 0-1-.5-1-1v-24.3c0-.6.5-1 1-1 4.2 0 8.4-.1 12.6 0 7.5.3 11.9 5 11.9 12.3v13.1c0 .5-.5 1-1 1h-2.8c-.5 0-1-.5-1-1z"/><path d="m354.13713 381.1c0 6.2 5.2 8.3 15.9 8.2v-22.9c0-.5.5-1 1-1h2.8c.5 0 1 .5 1 1v24.3c0 .6-.5 1-1 1-4.2 0-8.4.1-12.6 0-7.5-.3-11.9-5-11.9-12.3v-13.1c0-.5.5-1 1-1h2.8c.5 0 1 .5 1 1z"/><path d="m141.03713 379.5v-22.1c0-.6.5-1 1-1h2.8c.6 0 1 .5 1 1v7.6c0 .3.2.5.5.5h7c.3 0 .5.2.5.5v1.4c0 .3-.2.5-.5.5h-7c-.3 0-.5.2-.5.5v13.5c0 4 2.3 6.3 6.9 7.3 2.8.6 3.6 2.7.2 2.6-7.4-.2-11.9-5-11.9-12.3z"/><path d="m444.13713 379.5v-22.1c0-.6.5-1 1-1h2.8c.5 0 1 .5 1 1v7.6c0 .3.2.5.5.5h7c.3 0 .5.2.5.5v1.4c0 .3-.2.5-.5.5h-7c-.3 0-.5.2-.5.5v13.5c0 4 2.3 6.3 6.9 7.3 2.8.6 3.6 2.7.2 2.6-7.5-.2-11.9-5-11.9-12.3z"/><path d="m254.43713 368.7v22.1c0 .5.5 1 1 1h2.8c.5 0 1-.5 1-1v-15.2c0-.3.2-.5.5-.5h7c.3 0 .5-.2.5-.5v-1.4c0-.3-.2-.5-.5-.5h-7c-.3 0-.5-.2-.5-.5v-5.8c0-4 2.3-6.3 6.9-7.3 2.8-.6 3.6-2.7.2-2.6-7.5.1-11.9 4.9-11.9 12.2z"/><path d="m161.43713 377.7v13.1c0 .5.5 1 1 1h2.8c.5 0 1-.5 1-1 0-16.9 0 7.4 0-15.4 0-4 2.3-6.3 6.9-7.3 2.8-.6 3.6-2.7.2-2.6-7.5.2-11.9 4.9-11.9 12.2z"/><path d="m200.13713 392.3c0-.3-.2-.5-.5-.5-1.9 0-3.1 0-5.7-.1-7.5-.3-11.9-5-11.9-12.3v-13.1c0-.5.5-1 1-1h2.8c.5 0 1 .5 1 1v14.7c0 4.5 2.9 8.5 6.8 8.5 2.4 0 6.6-1.9 6.6-6.9 0-5.4 0-10.9 0-16.3 0-.5.5-1 1-1h2.8c.5 0 1 .5 1 1v29.2c0 7.3-4.4 12.1-11.9 12.3-3.4.1-2.6-2 .2-2.6 4.6-1 6.9-3.6 7-7.6z"/><path d="m286.53713 356.4h22.9c.4 0 .7.3.7.7v2c0 .4-.3.7-.7.7h-19.1v11.8h13.6c.4 0 .7.3.7.7v2c0 .4-.3.7-.7.7h-13.6v13.4h19.1c.4 0 .7.3.7.7v2c0 .4-.3.7-.7.7-7.6 0-15.3 0-22.9 0-.6 0-1-.5-1-1v-33.4c0-.5.5-1 1-1z"/><path d="m238.53713 365.5h-6c-5.5 0-10 4.5-10 10v6.3c0 5.5 4.5 10 10 10h6c5.5 0 10-4.5 10-10v-6.3c0-5.5-4.5-10-10-10zm4.8 17.6c0 3.3-2.7 6.1-6.1 6.1h-3.6c-3.3 0-6.1-2.7-6.1-6.1v-8.9c.1-3.4 2.8-6.1 6.1-6.1h3.6c3.3 0 6.1 2.7 6.1 6.1z"/><path d="m493.73713 365.5h-6c-5.5 0-10 4.5-10 10v6.3c0 5.5 4.5 10 10 10h6c5.5 0 10-4.5 10-10v-6.3c0-5.5-4.5-10-10-10zm4.9 17.6c0 3.3-2.7 6.1-6.1 6.1h-3.6c-3.3 0-6.1-2.7-6.1-6.1v-8.9c.1-3.4 2.8-6.1 6.1-6.1h3.6c3.3 0 6.1 2.7 6.1 6.1z"/><path d="m339.33713 356.4h-2.8c-.5 0-1 .5-1 1v7.6c0 .3-.2.5-.5.5h-11.2c-5.5 0-10 4.5-10 10v6.3c0 5.5 4.5 10 10 10h12.7 1.8 1c.6 0 1-.5 1-1v-33.4c0-.6-.5-1-1-1zm-3.8 32.6c0 .3-.2.5-.5.5h-9c-4 0-7.3-3.3-7.3-7.3v-7c0-4 3.3-7.3 7.3-7.3h9c.3 0 .5.2.5.5z"/><path d="m434.73713 365.5c-4.7 0-8.6 0-15.4 0-5.5 0-10 4.5-10 10v6.3c0 5.5 4.5 10 10 10 4.9 0 10.9-.7 11.6-.6.5.1.7.6 1.5.6h2.3c.6 0 1-.5 1-1v-24.3c0-.6-.5-1-1-1zm-3.7 17.8c0 2.4-1.6 6.7-9.5 6.1-4-.3-7.3-3.3-7.3-7.3v-7c0-4 3.3-7.3 7.3-7.3h9c.3 0 .5.2.5.5z"/><path d="m391.13713 391.8c-5.5 0-10-4.5-10-10v-6.3c0-5.5 4.5-10 10-10h13.1c.1 0 .2.1.2.2v1.9c0 .1-.1.2-.2.2-3.7 0-7.3 0-11 0-4 0-7.3 3.3-7.3 7.3v7c0 4 3.3 7.3 7.3 7.3h11c.1 0 .2.1.2.2v1.9c0 .1-.1.2-.2.2z"/><path d="m129.93713 367.5c2.4 0 2.4-3.3.1-3.5-6.7-.7-12.9.8-14.5 6.1-1.2 4 1.2 7.6 7 8.7 7.6 1.4 10.5 5.1 7.3 8.5-1.7 1.7-6.8 1.1-10.5 1.3-4 .2-3.5 3.2 0 3.2 6 .1 12.7.9 15.1-3.1 2.5-4.2.4-10-4.3-11-6.3-1.3-10.2-2.7-9.4-6.3.7-3.6 3.8-3.8 9.2-3.9z"/></g><path d="m536.43713 162.5c4 0 7.2 3.2 7.2 7.2s-3.2 7.2-7.2 7.2-7.2-3.2-7.2-7.2c.1-4 3.3-7.2 7.2-7.2z" fill="#008a79"/><path d="m536.43713 100.6c4.3 0 7.8 3.5 7.8 7.8s-3.5 7.8-7.8 7.8-7.8-3.5-7.8-7.8 3.5-7.8 7.8-7.8z" fill="#008a79"/><path d="m572.23713 130c4.3 0 7.8 3.5 7.8 7.8s-3.5 7.8-7.8 7.8-7.8-3.5-7.8-7.8 3.5-7.8 7.8-7.8z" fill="#00897d"/><path d="m502.23713 131.3c4.3 0 7.8 3.5 7.8 7.8s-3.5 7.8-7.8 7.8-7.8-3.5-7.8-7.8c-.1-4.3 3.4-7.8 7.8-7.8z" fill="#00897d"/><path d="m430.03713 142.2c4 0 7.2 3.2 7.2 7.2s-3.2 7.2-7.2 7.2-7.2-3.2-7.2-7.2 3.2-7.2 7.2-7.2z" fill="#008880"/><path d="m643.33713 141.3c4 0 7.2 3.2 7.2 7.2s-3.2 7.2-7.2 7.2-7.2-3.2-7.2-7.2 3.3-7.2 7.2-7.2z" fill="#008880"/><path d="m574.03713 72.6c4.7 0 8.4 3.8 8.4 8.4 0 4.7-3.8 8.4-8.4 8.4-4.7 0-8.4-3.8-8.4-8.4 0-4.7 3.7-8.4 8.4-8.4z" fill="#008880"/><path d="m500.23713 73.5c4.7 0 8.4 3.8 8.4 8.4 0 4.7-3.8 8.4-8.4 8.4-4.7 0-8.4-3.8-8.4-8.4s3.8-8.4 8.4-8.4z" fill="#008880"/><path d="m463.53713 104.9c4.7 0 8.4 3.8 8.4 8.4 0 4.7-3.8 8.4-8.4 8.4-4.7 0-8.4-3.8-8.4-8.4s3.8-8.4 8.4-8.4z" fill="#008880"/><path d="m610.73713 103.5c5 0 9 4 9 9s-4 9-9 9-9-4-9-9 4.1-9 9-9z" fill="#008880"/><path d="m613.43713 47.9c5.5 0 9.9 4.4 9.9 9.9s-4.4 9.9-9.9 9.9-9.9-4.4-9.9-9.9 4.4-9.9 9.9-9.9z" fill="#00998b"/><path d="m655.23713 28.8c6.8 0 12.3 5.5 12.3 12.3s-5.5 12.3-12.3 12.3-12.3-5.5-12.3-12.3c0-6.7 5.5-12.3 12.3-12.3z" fill="#009b8b"/><path d="m698.63713 15.3c7.9 0 14.3 6.4 14.3 14.3s-6.4 14.3-14.3 14.3-14.3-6.4-14.3-14.3 6.4-14.3 14.3-14.3z" fill="#00a08b"/><path d="m743.03713 6.1c8.3 0 14.9 6.7 14.9 14.9 0 8.3-6.7 14.9-14.9 14.9-8.3 0-15-6.7-15-14.9s6.7-14.9 15-14.9z" fill="#00b4a6"/><path d="m788.13713 0c9.2 0 16.7 7.5 16.7 16.7s-7.5 16.7-16.7 16.7-16.7-7.5-16.7-16.7c0-9.3 7.5-16.7 16.7-16.7z" fill="#00b6a7"/><path d="m652.43713 82.9c5.5 0 9.9 4.4 9.9 9.9s-4.4 9.9-9.9 9.9-9.9-4.4-9.9-9.9c-.1-5.4 4.4-9.9 9.9-9.9z" fill="#00998b"/><path d="m695.93713 66.9c6.8 0 12.3 5.5 12.3 12.3s-5.5 12.3-12.3 12.3-12.3-5.5-12.3-12.3c0-6.7 5.5-12.3 12.3-12.3z" fill="#009b8b"/><path d="m741.73713 56.7c7.9 0 14.3 6.4 14.3 14.3s-6.4 14.3-14.3 14.3-14.3-6.4-14.3-14.3 6.4-14.3 14.3-14.3z" fill="#00a08b"/><path d="m789.93713 55.1c8.3 0 14.9 6.7 14.9 14.9 0 8.3-6.7 15-14.9 15-8.3 0-15-6.7-15-15 0-8.2 6.7-14.9 15-14.9z" fill="#00b4a6"/><path d="m690.03713 119.7c5.5 0 9.9 4.4 9.9 9.9s-4.4 9.9-9.9 9.9-9.9-4.4-9.9-9.9 4.4-9.9 9.9-9.9z" fill="#00998b"/><path d="m741.73713 107.4c6.8 0 12.3 5.5 12.3 12.3s-5.5 12.3-12.3 12.3-12.3-5.5-12.3-12.3c0-6.7 5.5-12.3 12.3-12.3z" fill="#009b8b"/><path d="m791.23713 106.1c7.4 0 13.4 6 13.4 13.4s-6 13.4-13.4 13.4-13.4-6-13.4-13.4c-.1-7.4 6-13.4 13.4-13.4z" fill="#00a08b"/><path d="m460.63713 49.2c5.5 0 9.9 4.4 9.9 9.9s-4.4 9.9-9.9 9.9-9.9-4.4-9.9-9.9c0-5.4 4.4-9.9 9.9-9.9z" fill="#00998b"/><path d="m419.43713 30.6c6.8 0 12.3 5.5 12.3 12.3s-5.5 12.3-12.3 12.3-12.3-5.5-12.3-12.3c-.1-6.8 5.5-12.3 12.3-12.3z" fill="#009d8a"/><path d="m375.73713 17c7.9 0 14.3 6.4 14.3 14.3s-6.4 14.3-14.3 14.3-14.3-6.4-14.3-14.3 6.4-14.3 14.3-14.3z" fill="#00a08b"/><path d="m331.43713 8.3c8.3 0 14.9 6.7 14.9 15s-6.7 14.9-14.9 14.9c-8.3 0-15-6.7-15-14.9 0-8.3 6.7-15 15-15z" fill="#00b4a6"/><path d="m286.43713 0c9.2 0 16.7 7.5 16.7 16.7s-7.5 16.7-16.7 16.7-16.7-7.5-16.7-16.7c0-9.3 7.5-16.7 16.7-16.7z" fill="#00b6a7"/><path d="m421.83713 84.2c5.5 0 9.9 4.4 9.9 9.9s-4.4 9.9-9.9 9.9-9.9-4.4-9.9-9.9c0-5.4 4.4-9.9 9.9-9.9z" fill="#00998b"/><path d="m377.93713 68.3c6.8 0 12.3 5.5 12.3 12.3s-5.5 12.3-12.3 12.3-12.3-5.5-12.3-12.3 5.5-12.3 12.3-12.3z" fill="#009d8a"/><path d="m331.43713 58c7.9 0 14.3 6.4 14.3 14.3s-6.4 14.3-14.3 14.3-14.3-6.4-14.3-14.3 6.4-14.3 14.3-14.3z" fill="#00a08b"/><path d="m284.63713 56.4c8.3 0 15 6.7 15 14.9 0 8.3-6.7 15-15 15s-14.9-6.7-14.9-15c0-8.2 6.6-14.9 14.9-14.9z" fill="#00b4a6"/><path d="m384.43713 121c5.5 0 9.9 4.4 9.9 9.9s-4.4 9.9-9.9 9.9-9.9-4.4-9.9-9.9c0-5.4 4.4-9.9 9.9-9.9z" fill="#00998b"/><path d="m334.03713 108.8c6.8 0 12.3 5.5 12.3 12.3s-5.5 12.3-12.3 12.3-12.3-5.5-12.3-12.3 5.5-12.3 12.3-12.3z" fill="#009d8a"/><path d="m282.43713 107.5c7.4 0 13.4 6 13.4 13.4s-6 13.4-13.4 13.4-13.4-6-13.4-13.4 6-13.4 13.4-13.4z" fill="#00a08b"/><circle cx="71.437126" cy="317.49997" fill="#019a8b" r="4"/><circle cx="271.03714" cy="254.60001" fill="#019a8b" r="4"/><path d="m84.93713 313.5c-2.3 0-4.1 1.8-4 4 0 2.2 1.8 4 4 4s4-1.8 4-4-1.8-4-4-4z" fill="#019a8b"/><circle cx="393.83713" cy="254.60001" fill="#019a8b" r="4"/><path d="m284.53713 258.6c2.2 0 4-1.8 4-4s-1.8-4-4-4c-2.3 0-4.1 1.8-4 4 0 2.2 1.8 4 4 4z" fill="#019a8b"/><path d="m380.43713 258.6c2.2 0 4-1.8 4-4s-1.8-4-4-4c-2.3 0-4.1 1.8-4 4 0 2.2 1.8 4 4 4z" fill="#019a8b"/><path d="m476.43713 269.3h-6.5c-.4 0-.7.3-.8.7v35.3c0 11.8-5.5 12.2-7.7 13-2.9 1-2.2 4.3 1.2 3.8 5-.7 14.5-4.3 14.5-20.2 0-12.2 0-19.7 0-31.9 0-.4-.3-.7-.7-.7z" fill="#019a8b"/><circle cx="473.33713" cy="254.60001" fill="#019a8b" r="4"/><path d="m534.83713 269.1h-23.1c-14.2 0-23.3 4.9-23.2 18.7v14.8c0 .4.3.7.7.7h37.7c.4.2.8.5.8.9v9c-.1 2.2-3.2 4-5 5.5-1.6 1.4-1.6 2.4 1.8 2.1 4.3-.4 11.1-5.7 11-10.6v-7.5-6.8-26.1c0-.4-.3-.7-.7-.7zm-7.2 27.1c0 .4-.4.8-.8.8h-29.5c-.4 0-.8-.4-.8-.8v-10.3c0-4.6 3.2-10.1 12.2-10.1h18.1c.4 0 .8.4.8.8z" fill="#019a8b"/><path d="m454.13713 250.5h-6.5c-.4 0-.7.4-.7.8v51.6c0 .4.3.7.7.7h6.5c.4 0 .7-.3.7-.7v-51.7c0-.4-.3-.7-.7-.7z" fill="#019a8b"/><path d="m331.63713 250.5h-6.5c-.3 0-.7.4-.7.8v51.6c0 .4.3.7.7.7h6.5c.4 0 .7-.3.7-.7v-51.7c0-.4-.3-.7-.7-.7z" fill="#019a8b"/><path d="m432.73713 269.3h-6.5c-.4 0-.7.3-.8.7v35.3c0 11.8-5.5 12.2-7.7 13-2.9 1-2.2 4.3 1.2 3.8 5-.7 14.5-4.3 14.5-20.2 0-12.2 0-19.7 0-31.9 0-.4-.3-.7-.7-.7z" fill="#019a8b"/><path d="m408.23713 269.3h-23.1c-14.2 0-23.3 4.9-23.2 18.7v14.8c0 .4.3.7.7.7h45.6c.4 0 .7-.3.7-.7v-32.8c0-.4-.3-.7-.7-.7zm-7.3 26.9c0 .4-.4.8-.8.8h-29.5c-.4 0-.8-.4-.8-.8v-10.3c0-4.6 3.2-10.1 12.2-10.1h18.1c.4 0 .8.4.8.8z" fill="#019a8b"/><path d="m310.43713 250.4h-6.4c-.4 0-.7.3-.7.7v43.8c0 .4-.3.7-.7.7h-20.1c-.4 0-.7-.3-.7-.7v-25.1c0-.4-.3-.7-.7-.7h-6.5c-.4 0-.7.3-.7.7v25.1c0 .4-.3.7-.7.7h-82.2c-.4 0-.8-.4-.8-.8v-8.9c0-4.6 3.2-10.2 12.2-10.2h33.3c.4 0 .7-.3.7-.7v-5.1c0-.4-.3-.7-.7-.7h-30.3c-14.2 0-23.3 4.9-23.2 18.7v6.9c0 .4-.3.7-.7.7h-66.8c-.4 0-.7-.3-.7-.7v-43.9c0-.4-.3-.7-.7-.7h-6.5c-.4 0-.7.3-.7.7v44c0 .4-.3.7-.7.7h-22.5c-.4 0-.7-.3-.7-.7v-24.6c0-.4-.3-.7-.7-.7h-6.5c-.4 0-.7.3-.7.7v24.6c0 .4-.3.7-.7.7h-14.6c-.4 0-.7-.3-.7-.7v-6.9c.1-13.8-9-18.7-23.2-18.7h-28.4999996c-.4 0-.7.3-.7.7v43.2h.1c-.1 2.2-3.2 4-5 5.5-1.59999995 1.4-1.59999995 2.4 1.8 2.1 4.3-.4 11.0999996-5.7 10.9999996-10.6v-6.8h43.7 252.9c.4 0 .7-.3.7-.7v-51.6c0-.4-.3-.7-.7-.7zm-260 44.4c0 .4-.3.8-.8.8h-34.9c-.4 0-.8-.4-.8-.8v-18.2c0-.4.4-.8.8-.8h23.5c9 0 12.2 5.5 12.2 10.1z" fill="#019a8b"/></svg>